# xmcd CD database file
#
# Track frame offsets:
#	150
#	24512
#	46231
#	85510
#	125998
#	164851
#	186158
#	203142
#	227774
#	263679
#	297849
#
# Disc length: 4382 seconds
#
# Revision: 0
# Processed by: cddbd v1.5.2PL0 Copyright (c) Steve Scherf et al.
# Submitted via: CDex 1.51
#
DISCID=9a111c0b
DTITLE=Dave Goodman - Bielefeld Bootleg
DYEAR=2016
DGENRE=Blues
TTITLE0=She's Gone
TTITLE1=Georgia Lee
TTITLE2=Take Out Some Insurance
TTITLE3=Step It Up And Go
TTITLE4=Goodbye Gary
TTITLE5=The Letter
TTITLE6=Nobody's Fool
TTITLE7=Sweet Maybelline
TTITLE8=Not Dark Yet
TTITLE9=Leave It All Behind
TTITLE10=Side Of The Road
EXTD=YEAR: 2016
EXTT0=
EXTT1=
EXTT2=
EXTT3=
EXTT4=
EXTT5=
EXTT6=
EXTT7=
EXTT8=
EXTT9=
EXTT10=
PLAYORDER=
